HIERARCHY
ROOT newVegas:Hips
{
	OFFSET 0.000000 96.479958 0.000000
	CHANNELS 6 Xposition Yposition Zposition Xrotation Yrotation Zrotation
	JOINT newVegas:Pelvis
	{
		OFFSET 0.000000 0.000000 0.000000
		CHANNELS 3 Xrotation Yrotation Zrotation
		JOINT newVegas:LeftUpLeg
		{
			OFFSET 18.735201 -5.666702 -4.541200
			CHANNELS 3 Xrotation Yrotation Zrotation
			JOINT newVegas:LeftLeg
			{
				OFFSET -0.021200 -31.938179 0.493100
				CHANNELS 3 Xrotation Yrotation Zrotation
				JOINT newVegas:LeftFoot
				{
					OFFSET 0.021200 -31.938179 -4.336299
					CHANNELS 3 Xrotation Yrotation Zrotation
					JOINT newVegas:LeftToeBase
					{
						OFFSET 0.943001 -26.722000 15.023500
						CHANNELS 3 Xrotation Yrotation Zrotation
						End Site
						{
							OFFSET 0.000000 30.670183 0.000000
						}
					}
				}
				JOINT newVegas:Left_PantLeg
				{
					OFFSET 0.663870 -9.044666 -1.108900
					CHANNELS 3 Xrotation Yrotation Zrotation
					End Site
					{
						OFFSET 1.415995 20.635357 0.000000
					}
				}
			}
		}
		JOINT newVegas:RightUpLeg
		{
			OFFSET -18.735201 -5.666702 -4.541200
			CHANNELS 3 Xrotation Yrotation Zrotation
			JOINT newVegas:RightLeg
			{
				OFFSET 0.018946 -31.938133 0.493100
				CHANNELS 3 Xrotation Yrotation Zrotation
				JOINT newVegas:RightFoot
				{
					OFFSET -0.018946 -31.938126 -4.336299
					CHANNELS 3 Xrotation Yrotation Zrotation
					JOINT newVegas:RightToeBase
					{
						OFFSET -0.943001 -26.722004 15.023500
						CHANNELS 3 Xrotation Yrotation Zrotation
						End Site
						{
							OFFSET 0.000000 30.670187 0.000000
						}
					}
				}
				JOINT newVegas:Right_PantLeg
				{
					OFFSET -0.661674 -9.044716 -1.108900
					CHANNELS 3 Xrotation Yrotation Zrotation
					End Site
					{
						OFFSET -1.415958 20.635269 0.000000
					}
				}
			}
		}
	}
	JOINT newVegas:Spine
	{
		OFFSET 0.000000 10.199997 -0.299500
		CHANNELS 3 Xrotation Yrotation Zrotation
		JOINT newVegas:Spine1
		{
			OFFSET 0.000000 11.900002 -1.516600
			CHANNELS 3 Xrotation Yrotation Zrotation
			JOINT newVegas:Spine2
			{
				OFFSET 0.000000 13.600006 -2.842500
				CHANNELS 3 Xrotation Yrotation Zrotation
				JOINT newVegas:Neck
				{
					OFFSET 0.000000 9.624100 -2.890100
					CHANNELS 3 Xrotation Yrotation Zrotation
					JOINT newVegas:Head
					{
						OFFSET 0.000000 14.068802 -1.351900
						CHANNELS 3 Xrotation Yrotation Zrotation
						JOINT newVegas:Hair_Back
						{
							OFFSET 0.000000 3.231903 -17.524799
							CHANNELS 3 Xrotation Yrotation Zrotation
							End Site
							{
								OFFSET 0.000000 19.849884 0.000000
							}
						}
						JOINT newVegas:Hair_Front
						{
							OFFSET 0.000000 31.260406 4.573800
							CHANNELS 3 Xrotation Yrotation Zrotation
							JOINT newVegas:Hair_Front1
							{
								OFFSET 0.000000 2.284103 11.993300
								CHANNELS 3 Xrotation Yrotation Zrotation
								JOINT newVegas:Hair_Front2
								{
									OFFSET 0.000000 2.284103 11.993300
									CHANNELS 3 Xrotation Yrotation Zrotation
									End Site
									{
										OFFSET 0.000000 12.208862 0.000000
									}
								}
							}
						}
						JOINT newVegas:Jowel
						{
							OFFSET 0.000000 -7.458206 6.864100
							CHANNELS 3 Xrotation Yrotation Zrotation
							End Site
							{
								OFFSET 0.000000 19.849884 0.000000
							}
						}
					}
				}
				JOINT newVegas:LeftShoulder
				{
					OFFSET 15.263000 10.923401 -0.547700
					CHANNELS 3 Xrotation Yrotation Zrotation
					JOINT newVegas:LeftArm
					{
						OFFSET 25.438599 -2.830597 -13.032500
						CHANNELS 3 Xrotation Yrotation Zrotation
						JOINT newVegas:LeftForeArm
						{
							OFFSET 29.960503 0.000000 0.000000
							CHANNELS 3 Xrotation Yrotation Zrotation
							JOINT newVegas:LeftHand
							{
								OFFSET 27.849251 0.000000 0.000000
								CHANNELS 3 Xrotation Yrotation Zrotation
								JOINT newVegas:LeftHandThumb1
								{
									OFFSET 4.487587 -3.305161 6.305391
									CHANNELS 3 Xrotation Yrotation Zrotation
									JOINT newVegas:LeftHandThumb2
									{
										OFFSET 5.480453 -3.164139 3.164143
										CHANNELS 3 Xrotation Yrotation Zrotation
										JOINT newVegas:LeftHandThumb3
										{
											OFFSET 5.159721 -2.978973 2.978967
											CHANNELS 3 Xrotation Yrotation Zrotation
											End Site
											{
												OFFSET 2.494507 5.926697 1.738678
											}
										}
									}
								}
								JOINT newVegas:LeftHandIndex1
								{
									OFFSET 18.578728 -0.527832 5.208049
									CHANNELS 3 Xrotation Yrotation Zrotation
									JOINT newVegas:LeftHandIndex2
									{
										OFFSET 3.192009 0.000000 0.000000
										CHANNELS 3 Xrotation Yrotation Zrotation
										JOINT newVegas:LeftHandIndex3
										{
											OFFSET 3.835129 0.000000 0.000000
											CHANNELS 3 Xrotation Yrotation Zrotation
											End Site
											{
												OFFSET -0.034599 3.816971 0.371180
											}
										}
									}
								}
								JOINT newVegas:LeftHandMiddle1
								{
									OFFSET 18.476105 0.000000 0.000000
									CHANNELS 3 Xrotation Yrotation Zrotation
									JOINT newVegas:LeftHandMiddle2
									{
										OFFSET 3.324875 0.000000 0.000000
										CHANNELS 3 Xrotation Yrotation Zrotation
										JOINT newVegas:LeftHandMiddle3
										{
											OFFSET 4.596550 0.000000 0.000000
											CHANNELS 3 Xrotation Yrotation Zrotation
											End Site
											{
												OFFSET 0.057701 4.578827 0.399218
											}
										}
									}
								}
								JOINT newVegas:LeftHandRing1
								{
									OFFSET 17.732719 0.121887 -4.201567
									CHANNELS 3 Xrotation Yrotation Zrotation
									JOINT newVegas:LeftHandRing2
									{
										OFFSET 2.733170 0.000000 0.000000
										CHANNELS 3 Xrotation Yrotation Zrotation
										JOINT newVegas:LeftHandRing3
										{
											OFFSET 3.178268 0.000000 0.000000
											CHANNELS 3 Xrotation Yrotation Zrotation
											End Site
											{
												OFFSET 0.119102 3.170624 0.185394
											}
										}
									}
								}
								JOINT newVegas:LeftHandPinky1
								{
									OFFSET 15.989624 -0.606689 -7.535461
									CHANNELS 3 Xrotation Yrotation Zrotation
									JOINT newVegas:LeftHandPinky2
									{
										OFFSET 2.538986 0.000000 0.000000
										CHANNELS 3 Xrotation Yrotation Zrotation
										JOINT newVegas:LeftHandPinky3
										{
											OFFSET 2.593102 0.000000 0.000000
											CHANNELS 3 Xrotation Yrotation Zrotation
											End Site
											{
												OFFSET -0.150902 2.584198 0.152708
											}
										}
									}
								}
							}
							JOINT newVegas:Left_Sleeve
							{
								OFFSET 0.267448 -0.649796 0.577675
								CHANNELS 3 Xrotation Yrotation Zrotation
								End Site
								{
									OFFSET 0.000000 15.991241 0.000000
								}
							}
							JOINT newVegas:Left_CapeC
							{
								OFFSET 15.715958 -8.608795 -6.935905
								CHANNELS 3 Xrotation Yrotation Zrotation
								JOINT newVegas:Left_CapeC1
								{
									OFFSET 0.000000 -8.688499 0.000000
									CHANNELS 3 Xrotation Yrotation Zrotation
									End Site
									{
										OFFSET 0.000000 8.688499 0.000000
									}
								}
							}
						}
						JOINT newVegas:Left_CapeB
						{
							OFFSET 26.118385 -8.608795 -7.079235
							CHANNELS 3 Xrotation Yrotation Zrotation
							JOINT newVegas:Left_CapeB1
							{
								OFFSET 0.000000 -8.688499 0.000000
								CHANNELS 3 Xrotation Yrotation Zrotation
								End Site
								{
									OFFSET 0.000000 8.688499 0.000000
								}
							}
						}
						JOINT newVegas:Left_CapeA
						{
							OFFSET 5.115639 -8.608795 -10.395809
							CHANNELS 3 Xrotation Yrotation Zrotation
							JOINT newVegas:Left_CapeA1
							{
								OFFSET 0.000000 -8.688499 0.000000
								CHANNELS 3 Xrotation Yrotation Zrotation
								End Site
								{
									OFFSET 0.000000 8.688499 0.000000
								}
							}
						}
					}
				}
				JOINT newVegas:RightShoulder
				{
					OFFSET -15.263000 10.923401 -0.547700
					CHANNELS 3 Xrotation Yrotation Zrotation
					JOINT newVegas:RightArm
					{
						OFFSET -25.438599 -2.830597 -13.032500
						CHANNELS 3 Xrotation Yrotation Zrotation
						JOINT newVegas:RightForeArm
						{
							OFFSET -29.960503 0.000000 0.000000
							CHANNELS 3 Xrotation Yrotation Zrotation
							JOINT newVegas:RightHand
							{
								OFFSET -27.849251 0.000000 0.000000
								CHANNELS 3 Xrotation Yrotation Zrotation
								JOINT newVegas:RightHandThumb1
								{
									OFFSET -4.487587 -3.305161 6.305391
									CHANNELS 3 Xrotation Yrotation Zrotation
									JOINT newVegas:RightHandThumb2
									{
										OFFSET -5.480453 -3.164139 3.164143
										CHANNELS 3 Xrotation Yrotation Zrotation
										JOINT newVegas:RightHandThumb3
										{
											OFFSET -5.159721 -2.978973 2.978967
											CHANNELS 3 Xrotation Yrotation Zrotation
											End Site
											{
												OFFSET -2.494507 5.926697 1.738678
											}
										}
									}
								}
								JOINT newVegas:RightHandIndex1
								{
									OFFSET -18.578728 -0.527832 5.208049
									CHANNELS 3 Xrotation Yrotation Zrotation
									JOINT newVegas:RightHandIndex2
									{
										OFFSET -3.192009 0.000000 0.000000
										CHANNELS 3 Xrotation Yrotation Zrotation
										JOINT newVegas:RightHandIndex3
										{
											OFFSET -3.835129 0.000000 0.000000
											CHANNELS 3 Xrotation Yrotation Zrotation
											End Site
											{
												OFFSET 0.034599 3.816971 0.371180
											}
										}
									}
								}
								JOINT newVegas:RightHandMiddle1
								{
									OFFSET -18.476105 0.000000 0.000000
									CHANNELS 3 Xrotation Yrotation Zrotation
									JOINT newVegas:RightHandMiddle2
									{
										OFFSET -3.324875 0.000000 0.000000
										CHANNELS 3 Xrotation Yrotation Zrotation
										JOINT newVegas:RightHandMiddle3
										{
											OFFSET -4.596550 0.000000 0.000000
											CHANNELS 3 Xrotation Yrotation Zrotation
											End Site
											{
												OFFSET -0.057701 4.578827 0.399218
											}
										}
									}
								}
								JOINT newVegas:RightHandRing1
								{
									OFFSET -17.732719 0.121887 -4.201567
									CHANNELS 3 Xrotation Yrotation Zrotation
									JOINT newVegas:RightHandRing2
									{
										OFFSET -2.733170 0.000000 0.000000
										CHANNELS 3 Xrotation Yrotation Zrotation
										JOINT newVegas:RightHandRing3
										{
											OFFSET -3.178268 0.000000 0.000000
											CHANNELS 3 Xrotation Yrotation Zrotation
											End Site
											{
												OFFSET -0.119102 3.170624 0.185394
											}
										}
									}
								}
								JOINT newVegas:RightHandPinky1
								{
									OFFSET -15.989624 -0.606689 -7.535461
									CHANNELS 3 Xrotation Yrotation Zrotation
									JOINT newVegas:RightHandPinky2
									{
										OFFSET -2.538986 0.000000 0.000000
										CHANNELS 3 Xrotation Yrotation Zrotation
										JOINT newVegas:RightHandPinky3
										{
											OFFSET -2.593102 0.000000 0.000000
											CHANNELS 3 Xrotation Yrotation Zrotation
											End Site
											{
												OFFSET 0.150902 2.584198 0.152708
											}
										}
									}
								}
							}
							JOINT newVegas:Right_CapeC
							{
								OFFSET -15.715958 -8.608795 -6.935905
								CHANNELS 3 Xrotation Yrotation Zrotation
								JOINT newVegas:Right_CapeC1
								{
									OFFSET 0.000000 -8.688499 0.000000
									CHANNELS 3 Xrotation Yrotation Zrotation
									End Site
									{
										OFFSET 0.000000 8.688499 0.000000
									}
								}
							}
							JOINT newVegas:Right_Sleeve
							{
								OFFSET -0.267448 -0.649994 0.577675
								CHANNELS 3 Xrotation Yrotation Zrotation
								End Site
								{
									OFFSET 0.000000 15.991302 0.000000
								}
							}
						}
						JOINT newVegas:Right_CapeA
						{
							OFFSET -5.115540 -8.608795 -10.395824
							CHANNELS 3 Xrotation Yrotation Zrotation
							JOINT newVegas:Right_CapeA1
							{
								OFFSET 0.000000 -8.688499 0.000000
								CHANNELS 3 Xrotation Yrotation Zrotation
								End Site
								{
									OFFSET 0.000000 8.688499 0.000000
								}
							}
						}
						JOINT newVegas:Right_CapeB
						{
							OFFSET -26.118187 -8.608795 -7.079266
							CHANNELS 3 Xrotation Yrotation Zrotation
							JOINT newVegas:Right_CapeB1
							{
								OFFSET 0.000000 -8.688499 0.000000
								CHANNELS 3 Xrotation Yrotation Zrotation
								End Site
								{
									OFFSET 0.000000 8.688499 0.000000
								}
							}
						}
					}
				}
				JOINT newVegas:Left_Collar
				{
					OFFSET 18.625099 8.655502 8.828100
					CHANNELS 3 Xrotation Yrotation Zrotation
					JOINT newVegas:Left_Collar1
					{
						OFFSET 14.783401 10.540405 -1.259500
						CHANNELS 3 Xrotation Yrotation Zrotation
						End Site
						{
							OFFSET 0.000000 18.199875 0.000000
						}
					}
				}
				JOINT newVegas:Collar_Back
				{
					OFFSET 0.000000 15.630707 -20.132601
					CHANNELS 3 Xrotation Yrotation Zrotation
					End Site
					{
						OFFSET 0.000000 22.523010 0.000000
					}
				}
				JOINT newVegas:Left_Peck
				{
					OFFSET 17.239599 -5.132599 25.482599
					CHANNELS 3 Xrotation Yrotation Zrotation
					End Site
					{
						OFFSET 0.000000 22.523010 0.000000
					}
				}
				JOINT newVegas:Right_Peck
				{
					OFFSET -17.239599 -5.132202 25.482599
					CHANNELS 3 Xrotation Yrotation Zrotation
					End Site
					{
						OFFSET 0.000000 22.523010 0.000000
					}
				}
				JOINT newVegas:Right_Collar
				{
					OFFSET -18.625099 8.655792 8.828100
					CHANNELS 3 Xrotation Yrotation Zrotation
					JOINT newVegas:Right_Collar1
					{
						OFFSET -14.783401 10.539993 -1.259500
						CHANNELS 3 Xrotation Yrotation Zrotation
						End Site
						{
							OFFSET 0.000000 18.199631 0.000000
						}
					}
				}
			}
		}
		JOINT newVegas:Belly
		{
			OFFSET 0.000000 -6.540398 9.014299
			CHANNELS 3 Xrotation Yrotation Zrotation
			End Site
			{
				OFFSET 0.000000 11.566666 0.000000
			}
		}
	}
	JOINT newVegas:ElvisFacialAnim_Joint
	{
		OFFSET 1.000000 -95.330101 -8.825800
		CHANNELS 3 Xrotation Yrotation Zrotation
		End Site
		{
			OFFSET 0.000000 35.315800 0.000000
		}
	}
}
MOTION
Frames: 4
Frame Time: 0.033333
-3.139071 77.429276 1.175647 15.476618 -53.348220 11.977608 0.000000 -0.000000 -0.000000 -73.243219 15.002487 48.927572 52.649789 -16.453658 4.652903 5.962267 0.377865 -16.562063 -0.000000 -0.000000 -0.000000 0.000000 0.000001 -0.000000 -30.507525 -17.300500 -44.093884 42.361277 2.710152 -4.944061 -13.494163 -7.755823 39.630342 -0.000000 0.000000 -0.000000 -0.000001 0.000000 -0.000001 7.424889 3.354760 -3.370312 1.209177 1.420675 2.325054 0.209259 1.298845 1.049730 -0.390599 1.953732 -0.338252 -0.390600 1.953732 -0.338246 -0.000000 0.000002 -0.000001 -0.390598 1.953718 -0.338251 -0.390531 1.953727 -0.338253 -0.000000 0.000001 -0.000000 -0.000000 0.000002 -0.000001 -2.416907 -9.914487 -4.105216 -4.668979 -14.995288 -46.826954 -96.668077 -58.172803 -94.771716 0.027030 -0.377062 -3.261901 4.766492 -0.870676 -14.442469 15.732309 12.674838 8.828572 -0.000000 -0.000003 -0.000005 -3.610949 -7.817609 -81.262661 0.005175 -4.388523 -67.459094 0.000000 -0.000000 -0.000002 -5.483695 2.419548 -86.651024 -0.068367 -4.897301 -76.605503 0.000001 -0.000002 -0.000003 -4.480806 3.914159 -90.412532 -1.097243 -0.675680 -62.310716 -0.000000 -0.000001 -0.000001 -8.868642 8.263680 -85.753872 -0.047910 -0.066905 -74.105654 -0.000000 -0.000002 -0.000002 0.000000 -0.000001 -0.000001 0.000000 -0.000001 -0.000001 0.000000 -0.000001 -0.000001 -0.000001 -0.000003 0.000001 -0.000001 -0.000003 -0.000003 -0.000001 -0.000003 0.000001 -0.000001 -0.000003 0.000001 -7.387807 -19.317455 2.804093 3.089087 2.300714 51.805117 -16.213819 73.879417 16.738430 -2.716623 27.655252 10.524508 24.918357 -21.323369 30.343057 9.041920 8.262089 -18.001799 0.000000 -0.000001 0.000001 -0.070704 -3.035217 61.424205 0.006472 4.395140 66.609186 0.000001 0.000000 0.000002 -1.235413 -0.119471 68.274277 -0.077304 4.902839 84.501891 0.000001 -0.000001 -0.000000 0.883167 -4.613450 79.192956 -0.717764 1.136506 73.255780 -0.000000 -0.000001 -0.000001 -3.944533 0.099975 86.764774 -0.029810 0.060152 54.415144 0.000000 0.000003 0.000001 -0.000000 0.000001 -0.000001 -0.000000 0.000000 -0.000002 -0.000000 0.000001 -0.000000 -0.000000 0.000000 -0.000001 0.000000 0.000000 0.000000 -0.000000 0.000000 -0.000001 0.000001 0.000000 0.000002 0.000000 -0.000000 -0.000000 0.000000 -0.000000 -0.000000 0.000000 -0.000000 -0.000000 0.000000 -0.000000 -0.000000 0.000000 -0.000000 -0.000000 0.000000 -0.000000 -0.000000 0.000000 -0.000000 -0.000000 -0.000000 -0.000000 0.000000 0.000000 -0.000000 -0.000000 
-3.850608 77.618027 0.672183 17.897843 -52.220727 12.615978 -0.000000 -0.000001 0.000000 -76.498966 12.152156 49.284364 50.185259 -16.818864 4.413754 15.489935 -1.197344 -17.519830 0.000000 0.000002 -0.000000 0.000001 -0.000001 0.000002 -30.047611 -18.812641 -41.381493 41.327723 1.124856 -4.994698 -13.924084 -7.867327 39.337122 0.000000 0.000000 0.000000 -0.000000 0.000001 0.000003 9.554728 3.287347 -3.692545 1.387397 1.483340 2.099987 0.471975 1.381042 0.814119 -0.746012 1.826140 -0.386032 -0.745985 1.826128 -0.386022 0.000003 0.000003 -0.000001 -0.745932 1.826157 -0.386037 -0.746077 1.826109 -0.386019 0.000001 -0.000003 0.000001 0.000003 0.000003 -0.000000 -2.426585 -13.370530 3.559512 -0.457204 -9.009341 -50.388143 -120.741707 -47.668201 -122.230743 0.203209 -1.677905 -8.814127 4.766491 -0.870679 -14.442467 15.732311 12.674847 8.828577 -0.000002 -0.000001 -0.000001 -3.610948 -7.817609 -81.262661 0.005174 -4.388522 -67.459094 -0.000000 -0.000002 -0.000000 -5.483696 2.419549 -86.651024 -0.068368 -4.897299 -76.605496 0.000000 -0.000000 -0.000001 -4.480807 3.914159 -90.412532 -1.097241 -0.675683 -62.310716 -0.000001 -0.000001 0.000001 -8.868644 8.263680 -85.753879 -0.047907 -0.066904 -74.105661 0.000000 -0.000000 0.000001 -0.000000 0.000000 -0.000000 -0.000000 0.000000 -0.000000 -0.000000 0.000000 -0.000000 -0.000001 -0.000003 -0.000000 -0.000001 -0.000003 -0.000003 -0.000001 -0.000003 -0.000000 -0.000000 -0.000003 0.000000 -8.473382 -14.131000 -0.446360 10.968778 -6.470269 47.127793 -62.324329 74.220435 62.981830 -0.522973 11.969603 17.176730 24.918361 -21.323361 30.343061 9.041922 8.262089 -18.001804 0.000002 -0.000003 -0.000003 -0.070700 -3.035218 61.424212 0.006475 4.395138 66.609186 -0.000003 -0.000000 -0.000000 -1.235411 -0.119468 68.274284 -0.077305 4.902836 84.501885 -0.000000 -0.000000 0.000000 0.883168 -4.613447 79.192956 -0.717762 1.136508 73.255787 0.000001 0.000001 0.000001 -3.944538 0.099973 86.764781 -0.029811 0.060153 54.415144 0.000002 0.000002 -0.000001 -0.000000 -0.000000 0.000001 0.000003 -0.000003 0.000003 0.000000 0.000000 0.000001 -0.000000 0.000002 0.000003 -0.000000 0.000003 0.000004 -0.000000 0.000002 0.000003 -0.000000 0.000003 0.000004 0.000003 0.000003 -0.000002 0.000003 0.000003 -0.000002 0.000003 0.000003 -0.000002 0.000003 0.000003 -0.000002 0.000003 0.000003 -0.000002 0.000003 0.000003 -0.000002 0.000003 0.000003 -0.000002 -0.000001 0.000000 -0.000000 -0.000000 -0.000001 0.000000 
-4.169091 77.780853 0.172804 20.941729 -49.282267 13.723783 0.000000 -0.000000 0.000000 -80.396955 11.062859 47.535951 43.029099 -18.876584 3.749502 28.886537 -3.325848 -17.894950 -0.000000 0.000001 -0.000000 -0.000001 -0.000000 0.000000 -29.182922 -20.411402 -38.437853 39.688050 -2.315258 -5.158932 -13.963137 -8.065195 39.946156 0.000000 -0.000000 -0.000000 0.000003 0.000001 0.000002 11.655530 3.009614 -3.861337 1.789319 1.428853 1.987958 0.964261 1.334976 0.691812 -1.347393 1.625477 -0.281010 -1.347396 1.625467 -0.281004 0.000001 -0.000002 -0.000001 -1.347376 1.625490 -0.281012 -1.347377 1.625466 -0.280999 0.000002 -0.000001 -0.000001 0.000001 -0.000002 0.000000 -0.471250 -22.847679 12.676405 0.380203 -5.822630 -47.645856 -130.831317 -37.348683 -135.966650 -0.542187 2.239090 -5.627967 4.766493 -0.870679 -14.442464 15.732311 12.674842 8.828584 -0.000001 -0.000001 -0.000001 -3.610949 -7.817610 -81.262661 0.005175 -4.388522 -67.459094 0.000000 -0.000002 0.000000 -5.483696 2.419549 -86.651024 -0.068366 -4.897300 -76.605496 -0.000001 -0.000001 0.000000 -4.480805 3.914158 -90.412525 -1.097242 -0.675679 -62.310716 0.000000 -0.000001 0.000000 -8.868643 8.263682 -85.753879 -0.047916 -0.066908 -74.105654 -0.000000 -0.000005 0.000001 -0.000000 0.000000 0.000000 -0.000000 0.000000 0.000000 -0.000000 -0.000000 0.000000 -0.000002 0.000002 0.000003 -0.000002 0.000002 0.000001 -0.000002 0.000002 0.000003 -0.000002 0.000002 0.000003 -10.427322 -9.995131 -6.246703 18.782151 -15.946496 45.481854 -88.124180 64.913148 90.613941 4.638151 1.161069 21.272863 24.918361 -21.323364 30.343057 9.041920 8.262091 -18.001802 0.000001 -0.000001 -0.000000 -0.070702 -3.035216 61.424205 0.006472 4.395133 66.609186 0.000002 -0.000001 -0.000001 -1.235412 -0.119468 68.274284 -0.077305 4.902838 84.501885 -0.000000 0.000002 0.000000 0.883167 -4.613448 79.192956 -0.717759 1.136511 73.255780 0.000006 -0.000001 -0.000002 -3.944536 0.099971 86.764774 -0.029808 0.060145 54.415144 -0.000001 0.000003 0.000003 0.000001 0.000003 -0.000000 0.000002 0.000001 -0.000001 0.000001 0.000002 -0.000002 -0.000001 -0.000001 -0.000001 -0.000001 0.000000 -0.000001 -0.000001 -0.000001 -0.000001 -0.000001 -0.000000 -0.000001 0.000002 0.000001 -0.000001 0.000002 0.000001 -0.000001 0.000002 0.000001 -0.000001 0.000002 0.000001 -0.000001 0.000002 0.000001 -0.000001 0.000002 0.000001 -0.000001 0.000002 0.000001 -0.000001 0.000003 -0.000001 0.000000 0.000000 -0.000000 0.000000 
-4.068249 78.548553 -0.803921 25.072337 -45.183443 15.278573 -0.000000 -0.000000 0.000000 -83.472985 13.318531 44.269106 32.078765 -21.815800 2.570480 40.263890 -4.821177 -17.494085 0.000001 0.000001 -0.000001 -0.000001 -0.000001 -0.000002 -30.715593 -20.796720 -35.451110 38.550496 -6.268692 -5.430665 -10.304023 -6.868811 40.393138 -0.000000 -0.000000 0.000000 0.000001 0.000000 0.000002 12.711786 2.319663 -3.608859 2.469226 1.189075 1.999941 1.746806 1.090717 0.711944 -1.619891 1.456988 -0.253155 -1.619862 1.456989 -0.253162 -0.000000 -0.000001 0.000000 -1.619938 1.456983 -0.253153 -1.619787 1.456990 -0.253162 -0.000002 0.000000 -0.000001 -0.000000 -0.000001 0.000002 1.594855 -32.637717 17.682632 -3.515075 -2.473785 -35.602580 -129.393221 -27.369762 -140.433566 -1.765152 7.213615 0.264206 4.766492 -0.870677 -14.442473 15.732311 12.674841 8.828580 -0.000001 -0.000000 -0.000006 -3.610949 -7.817610 -81.262661 0.005176 -4.388523 -67.459094 0.000001 0.000001 0.000001 -5.483695 2.419548 -86.651024 -0.068367 -4.897300 -76.605503 -0.000000 -0.000000 0.000000 -4.480806 3.914157 -90.412525 -1.097241 -0.675679 -62.310723 -0.000000 -0.000001 0.000000 -8.868644 8.263679 -85.753879 -0.047910 -0.066899 -74.105654 -0.000001 -0.000003 0.000000 -0.000001 -0.000001 -0.000002 -0.000001 -0.000001 -0.000002 -0.000000 -0.000001 -0.000002 -0.000001 0.000000 0.000001 -0.000001 0.000000 -0.000000 -0.000001 0.000000 0.000001 -0.000001 0.000001 0.000002 -13.134269 -6.359371 -15.270894 26.887866 -18.748697 48.744028 -92.320402 56.605039 96.278148 6.607950 -2.104963 17.555336 24.918361 -21.323361 30.343054 9.041927 8.262090 -18.001799 -0.000000 0.000000 -0.000000 -0.070701 -3.035217 61.424205 0.006474 4.395138 66.609186 0.000001 -0.000002 -0.000000 -1.235409 -0.119470 68.274291 -0.077304 4.902841 84.501891 -0.000001 -0.000001 -0.000002 0.883166 -4.613446 79.192956 -0.717761 1.136516 73.255787 0.000000 -0.000001 -0.000001 -3.944537 0.099981 86.764781 -0.029811 0.060152 54.415144 -0.000003 0.000003 -0.000001 -0.000003 -0.000001 0.000002 0.000001 -0.000002 0.000006 -0.000003 -0.000001 0.000003 0.000001 -0.000001 -0.000000 0.000001 -0.000001 -0.000000 0.000001 -0.000001 -0.000000 0.000001 -0.000001 -0.000000 0.000002 -0.000000 -0.000000 0.000002 -0.000000 -0.000000 0.000002 -0.000000 -0.000000 0.000002 -0.000000 -0.000000 0.000002 -0.000000 -0.000000 0.000002 -0.000000 -0.000000 0.000002 -0.000000 -0.000000 0.000001 -0.000000 0.000002 -0.000000 -0.000000 0.000000 
